# xmcd CD database file
#
# Track frame offsets:
#	150
#	16876
#	20104
#	41994
#	56247
#	57601
#	73475
#	92207
#	109063
#	126769
#	143939
#	146066
#	165953
#	187840
#
# Disc length: 2638 seconds
#
# Revision: 0
# Processed by: cddbd v1.5.2PL0 Copyright (c) Steve Scherf et al.
# Submitted via: CDex 1.70beta2
#
DISCID=d70a4c0e
DTITLE=Lizzy Parks - Watching Space
DYEAR=2005
DGENRE=Jazz
TTITLE0=Same Old
TTITLE1=Moral of the Story
TTITLE2=Pass me by
TTITLE3=Watching Space
TTITLE4=Piece of Quiet
TTITLE5=For Real
TTITLE6=Changes is Made
TTITLE7=Last Night at the Theatre
TTITLE8=Roll Back
TTITLE9=What's the Deal
TTITLE10=Follow the Dot
TTITLE11=Joga
TTITLE12=Star
TTITLE13=You've Changed
EXTD=YEAR: 2005
EXTT0=
EXTT1=
EXTT2=
EXTT3=
EXTT4=
EXTT5=
EXTT6=
EXTT7=
EXTT8=
EXTT9=
EXTT10=
EXTT11=
EXTT12=
EXTT13=
PLAYORDER=
